<?xml version="1.0" encoding="UTF-8"?>
<svg xmlns="http://www.w3.org/2000/svg" xmlns:xlink="http://www.w3.org/1999/xlink" version="1.1" id="Capa_1" x="0px" y="0px" viewBox="0 0 1920 625" style="enable-background:new 0 0 1920 625;" xml:space="preserve">
<style type="text/css">
	.st0{fill:#0083D6;}
</style>
<g>
	<path class="st0" d="M777.3,420.7c-41.8,0-74.5-35.6-74.5-81c0-45.4,32.7-81,74.5-81c41.1,0,74.5,36.3,74.5,81   C851.8,384.4,818.4,420.7,777.3,420.7 M777.3,218.1c-66.4,0-118.5,53.4-118.5,121.6c0,67.9,51.6,121.2,117.6,121.2   c28.8,0,56.2-12,76.3-33.1v87.7l42.6-20.4V339.8C895.3,271.6,843.5,218.1,777.3,218.1"></path>
	<path class="st0" d="M1091.6,363.4c0,33-22.1,55.2-54.9,55.2c-33.1,0-55.4-22.2-55.4-55.2V223.8h-43.5v139.5   c0,56.3,41.6,97.1,98.9,97.1c57.3,0,98.9-40.8,98.9-97.1V223.8h-43.9V363.4z"></path>
	<path class="st0" d="M1289.4,420.3c-41.8,0-74.5-35.4-74.5-80.6c0-44.9,33.4-81.4,74.5-81.4c41.1,0,74.5,36.5,74.5,81.4   C1363.9,384.2,1330.5,420.3,1289.4,420.3 M1289.4,218.1c-66.4,0-118.5,53.4-118.5,121.6c0,67.9,51.7,121.2,117.6,121.2   c29.2,0,57.1-13,76.3-35.1v29.4h42.6V339.8C1407.4,271.6,1355.6,218.1,1289.4,218.1"></path>
	<path class="st0" d="M1563.9,420.3c-41.1,0-74.5-36.5-74.5-81.4c0-44.4,33.4-80.6,74.5-80.6c40.9,0,74.1,36.1,74.1,80.6   C1638,384.5,1605.4,420.3,1563.9,420.3 M1564.3,218.1c-28.6,0-56.6,12.2-76.3,33.1v-87.6l-42.6,20.4v154.9   c0,68.2,52,121.6,118.5,121.6c66.2,0,118-53.4,118-121.6C1681.9,271.2,1630.2,218.1,1564.3,218.1"></path>
	<path class="st0" d="M1870.6,223.8v139.5c0,33-22.1,55.2-54.9,55.2c-33.1,0-55.4-22.2-55.4-55.2V223.8h-43.5v139.5   c0,56.3,41.6,97.1,98.9,97.1c57.3,0,98.9-40.8,98.9-97.1V223.8H1870.6z"></path>
</g>
<path class="st0" d="M449,305.9v260.8l-111.1,53.3V498c-28.2,16.4-60.2,26.8-94.4,29.4V415.6c53.4-8.1,94.4-54.1,94.4-109.7  c0-55.6-41.1-101.6-94.4-109.7V84.5C358.2,93.1,448.9,189,449,305.9L449,305.9z M4.5,305.9V57.7L115.6,4.6v109.1  c28.2-16.4,60.2-26.8,94.4-29.4v111.8c-53.4,8.1-94.4,54.1-94.4,109.7c0,55.6,41.1,101.6,94.4,109.7v111.6  C95.3,518.7,4.5,422.8,4.5,305.9"></path>
</svg>
